<?xml version="1.0" encoding="iso-8859-1"?>
<!-- Generator: Adobe Illustrator 26.3.1, SVG Export Plug-In . SVG Version: 6.00 Build 0)  -->
<svg version="1.1" id="Layer_1" xmlns="http://www.w3.org/2000/svg" xmlns:xlink="http://www.w3.org/1999/xlink" x="0px" y="0px"
	 viewBox="0 0 313 313" style="enable-background:new 0 0 313 313;" xml:space="preserve">
<path d="M245.569,313H67.431C30.19,313,0,282.81,0,245.569V67.431C0,30.19,30.19,0,67.431,0h178.138C282.81,0,313,30.19,313,67.431
	v178.138C313,282.81,282.81,313,245.569,313z"/>
<g>
	<path style="fill:#FFFFFF;stroke:#FFFFFF;stroke-miterlimit:10;" d="M61.956,90.54h8.76l50.823,120.325h0.902L173.263,90.54h8.76
		V222.46h-7.729V109.672h-0.773L125.79,222.46h-7.601L70.459,109.672h-0.773V222.46h-7.73V90.54z"/>
	<path style="fill:#FFFFFF;stroke:#FFFFFF;stroke-miterlimit:10;" d="M176.067,222.46V90.54h73.431v7.472h-65.38v54.687h61.451
		v7.472h-61.451v54.817h66.926v7.472H176.067z"/>
</g>
</svg>
