<?xml version="1.0" encoding="iso-8859-1"?>
<!-- Generator: Adobe Illustrator 26.3.1, SVG Export Plug-In . SVG Version: 6.00 Build 0)  -->
<svg version="1.1" id="Layer_1" xmlns="http://www.w3.org/2000/svg" xmlns:xlink="http://www.w3.org/1999/xlink" x="0px" y="0px"
	 viewBox="0 0 313 313" style="enable-background:new 0 0 313 313;" xml:space="preserve">
<path d="M245.569,313H67.431C30.19,313,0,282.81,0,245.569V67.431C0,30.19,30.19,0,67.431,0h178.138
	C282.81,0,313,30.19,313,67.431v178.138C313,282.81,282.81,313,245.569,313z"/>
<g>
	<path style="stroke:#000000;stroke-miterlimit:10;" d="M79.143,88.773h6.955l40.347,95.523h0.716l40.347-95.523h6.954V193.5h-6.136
		v-89.539h-0.614L129.819,193.5h-6.034l-37.892-89.539H85.28V193.5h-6.137V88.773z"/>
	<path style="stroke:#000000;stroke-miterlimit:10;" d="M169.733,193.5V88.773h58.295v5.932h-51.903v43.415h48.784v5.932h-48.784
		v43.518h53.131v5.932H169.733z"/>
</g>
</svg>
